IKResults
version=1
nRows=10
nColumns=63
inDegrees=yes

Units are S.I. units (second, meters, Newtons, ...)
If the header above contains a line with 'inDegrees', this indicates whether rotational values are in degrees (yes) or radians (no).

endheader
time	pelvis_tilt	pelvis_list	pelvis_rotation	pelvis_tx	pelvis_ty	pelvis_tz	hip_flexion_r	hip_adduction_r	hip_rotation_r	knee_angle_r	knee_angle_r_beta	ankle_angle_r	subtalar_angle_r	mtp_angle_r	hip_flexion_l	hip_adduction_l	hip_rotation_l	knee_angle_l	knee_angle_l_beta	ankle_angle_l	subtalar_angle_l	mtp_angle_l	L5_S1_Flex_Ext	L5_S1_Lat_Bending	L5_S1_axial_rotation	L4_L5_Flex_Ext	L4_L5_Lat_Bending	L4_L5_axial_rotation	L3_L4_Flex_Ext	L3_L4_Lat_Bending	L3_L4_axial_rotation	L2_L3_Flex_Ext	L2_L3_Lat_Bending	L2_L3_axial_rotation	L1_L2_Flex_Ext	L1_L2_Lat_Bending	L1_L2_axial_rotation	L1_T12_Flex_Ext	L1_T12_Lat_Bending	L1_T12_axial_rotation	Abs_r3	Abs_r2	Abs_r1	Abs_t1	Abs_t2	neck_flexion	neck_bending	neck_rotation	arm_flex_r	arm_add_r	arm_rot_r	elbow_flex_r	pro_sup_r	wrist_flex_r	wrist_dev_r	arm_flex_l	arm_add_l	arm_rot_l	elbow_flex_l	pro_sup_l	wrist_flex_l	wrist_dev_l
      2.03333333	    -40.81770611	    -19.23860968	      0.66798546	     -1.33381528	      0.88475961	      0.44852647	     50.95112771	      9.58807864	     -5.77659280	     20.99631698	      0.36645486	     12.23409395	     -3.18352039	      0.00000000	     36.59113853	    -20.74382111	    -20.20918527	     26.46321731	      0.46187027	     32.10645565	     -1.60699354	      0.00000000	      5.55833468	      1.00697884	      1.07873282	     10.32238333	      1.33928186	      1.14615362	      9.13178804	      2.44836835	      1.14615362	      6.35262070	      2.44836835	      0.94389122	      5.16146958	      2.05343125	      0.87647042	      3.17603243	      1.55981022	      0.80904962	     39.70262877	     11.39114602	      5.99958834	      0.00000000	      0.00000000	      3.16154629	      1.32277571	      4.78810057	     -8.60037674	    -11.90901749	   -185.60910804	      1.26825592	     89.99559364	      0.00000000	      0.00000000	    -14.69178913	    -14.71600009	    -12.59570313	     55.28967104	     89.99559364	      0.00000000	      0.00000000
      2.06666667	    -40.13284917	    -18.73212303	      0.75715754	     -1.30848397	      0.88627057	      0.44907814	     49.46377315	      9.74740683	     -5.90435632	     22.28327732	      0.38891656	     13.36815244	     -3.06337825	      0.00000000	     35.30102826	    -21.03558687	    -20.38073355	     27.98468397	      0.48842488	     31.69250405	     -2.66530560	      0.00000000	      5.67952254	      0.98661677	      1.13214521	     10.54744130	      1.31220030	      1.20290429	      9.33088758	      2.39886001	      1.20290429	      6.49112631	      2.39886001	      0.99062706	      5.27400463	      2.01190891	      0.91986799	      3.24527918	      1.52826937	      0.84910891	     40.56826153	     11.16080620	      6.29665204	      0.00000000	      0.00000000	      2.87685697	      1.40202568	      4.35057403	    -10.01284767	    -11.60025567	   -185.70509590	      1.37174123	     89.99559364	      0.00000000	      0.00000000	    -15.64357490	    -14.41326822	    -11.57181089	     56.32419193	     89.99559364	      0.00000000	      0.00000000
      2.10000000	    -38.87708106	    -17.92327678	      1.03778826	     -1.28304489	      0.88789341	      0.44854913	     47.29566247	      9.48585185	     -6.04053097	     23.80943720	      0.41555307	     14.91031871	     -2.51811461	      0.00000000	     33.70795621	    -20.89594351	    -20.09788847	     29.81179355	      0.52031395	     30.83013223	     -4.82215865	      0.00000000	      5.69441710	      0.94345958	      1.21118554	     10.57510200	      1.25480124	      1.28688464	      9.35535786	      2.29392762	      1.28688464	      6.50814931	      2.29392762	      1.05978735	      5.28783572	      1.92390277	      0.98408825	      3.25378993	      1.46141889	      0.90838915	     40.67465192	     10.67260346	      6.73625061	      0.00000000	      0.00000000	      2.59658648	      1.27690485	      3.85233588	    -10.94384646	    -11.21896666	   -185.85458612	      1.27703589	     89.99559364	      0.00000000	      0.00000000	    -16.42975040	    -14.15167021	    -10.33508847	     56.37720583	     89.99559364	      0.00000000	      0.00000000
      2.13333333	    -37.61854176	    -16.99630334	      2.16287732	     -1.26031057	      0.88904282	      0.44632696	     45.21095252	      8.31039497	     -6.91884707	     25.42263836	      0.44370874	     16.80837524	     -1.43812407	      0.00000000	     33.14879057	    -19.98278322	    -18.22649872	     32.14647112	      0.56106176	     29.34977138	     -8.42733010	      0.00000000	      5.66452404	      0.85595459	      1.14883829	     10.51958759	      1.13841961	      1.22064068	      9.30624654	      2.08116799	      1.22064068	      6.47398452	      2.08116799	      1.00523350	      5.26007702	      1.74546260	      0.93343111	      3.23670903	      1.32587366	      0.86162872	     40.46112874	      9.68272953	      6.38949392	      0.00000000	      0.00000000	      2.60493635	      1.10782321	      3.50245059	    -11.10780978	    -10.88511746	   -187.22597757	      0.98975572	     89.99559364	      0.00000000	      0.00000000	    -17.06016802	    -13.80536509	     -9.44840242	     55.70719904	     89.99559364	      0.00000000	      0.00000000
      2.16666667	    -35.67100637	    -16.09532456	      3.70421054	     -1.23696650	      0.89064720	      0.44341301	     41.92082799	      7.26457331	     -7.15399862	     26.15034738	      0.45640966	     18.82042229	     -1.38409187	      0.00000000	     32.14802814	    -19.19652487	    -16.79776418	     34.39815763	      0.60036111	     27.75242285	    -11.17193394	      0.00000000	      5.51790562	      0.76038000	      1.02514132	     10.24730252	      1.01130540	      1.08921265	      9.06536714	      1.84878793	      1.08921265	      6.30641433	      1.84878793	      0.89699866	      5.12392716	      1.55056690	      0.83292732	      3.15293127	      1.17782862	      0.76885599	     39.41384804	      8.60157064	      5.70152848	      0.00000000	      0.00000000	      2.62077823	      1.02606989	      2.96447004	    -10.61464808	    -10.42878468	   -188.53672525	      0.69100087	     89.99559364	      0.00000000	      0.00000000	    -17.59123732	    -13.49635518	     -8.79989138	     54.13641298	     89.99559364	      0.00000000	      0.00000000
      2.20000000	    -34.05664328	    -16.33473333	      8.11111504	     -1.21956133	      0.89134027	      0.43702046	     39.03302930	      5.26487187	    -10.66147504	     26.20192050	      0.45730978	     21.14690987	     -0.72534955	      0.00000000	     34.23029911	    -17.86845030	    -11.53451432	     37.60124678	      0.65626556	     25.64265277	    -14.36129351	      0.00000000	      5.38004465	      0.65537516	      0.36942694	      9.99128091	      0.87164896	      0.39251612	      8.83887535	      1.59347917	      0.39251612	      6.14885303	      1.59347917	      0.32324857	      4.99590946	      1.33644103	      0.30015939	      3.07415751	      1.01517613	      0.27707020	     38.42912091	      7.41373490	      2.05464181	      0.00000000	      0.00000000	      3.44572831	      0.82336766	      2.28522048	     -9.23617069	    -10.26129698	   -195.05972276	      0.48485886	     89.99559364	      0.00000000	      0.00000000	    -17.37681016	    -13.00450141	     -8.05196983	     51.51579463	     89.99559364	      0.00000000	      0.00000000
      2.23333333	    -32.18179991	    -15.61995693	     11.26851653	     -1.20417417	      0.89245670	      0.43166867	     35.82691713	      3.62794749	    -12.22367375	     26.10159250	      0.45555873	     23.32176745	     -0.73396187	      0.00000000	     35.56299039	    -16.46591487	     -8.62113665	     40.43517114	      0.70572687	     24.13641359	    -16.42262051	      0.00000000	      5.09842914	      0.51342902	      0.00375294	      9.46829275	      0.68286060	      0.00398750	      8.37620923	      1.24835132	      0.00398750	      5.82699466	      1.24835132	      0.00328382	      4.73440130	      1.04698446	      0.00304926	      2.91324241	      0.79530155	      0.00281470	     36.41756948	      5.80801177	      0.02087271	      0.00000000	      0.00000000	      4.82998693	      0.82324398	      1.43515330	     -6.96250931	     -9.72621086	   -198.04349933	      0.35219811	     89.99559364	      0.00000000	      0.00000000	    -16.74150490	    -12.71332771	     -7.57648165	     48.23072686	     89.99559364	      0.00000000	      0.00000000
      2.26666667	    -30.38043276	    -16.14189262	     17.00695758	     -1.19184754	      0.89292208	      0.42325255	     32.47307810	      2.02902410	    -16.55412478	     25.02505954	      0.43676968	     25.30892588	     -0.86027326	      0.00000000	     38.91075492	    -14.55292592	     -3.13128050	     43.17292792	      0.75350974	     22.81414309	    -17.44953551	      0.00000000	      4.84426326	      0.39766747	     -0.84363907	      8.99628130	      0.52889773	     -0.89636651	      7.95864011	      0.96688868	     -0.89636651	      5.53650848	      0.96688868	     -0.73818418	      4.49838286	      0.81092350	     -0.68545674	      2.76801203	      0.61598691	     -0.63272930	     34.60208805	      4.49849393	     -4.69206740	      0.00000000	      0.00000000	      6.41801482	      0.84584474	      0.12444085	     -4.39277252	     -9.29621091	   -202.27838133	      0.27739367	     89.99559364	      0.00000000	      0.00000000	    -15.99617128	    -12.15898842	     -7.67002173	     44.52242177	     89.99559364	      0.00000000	      0.00000000
      2.30000000	    -28.67548925	    -16.03966186	     21.49849040	     -1.18271573	      0.89335779	      0.41615086	     29.57832949	      0.78155070	    -19.60240563	     24.40108496	      0.42587927	     26.85558980	     -1.31372621	      0.00000000	     42.01773744	    -12.45810938	      0.66862081	     45.28830428	      0.79043002	     22.07783517	    -17.93932704	      0.00000000	      4.49174033	      0.27851669	     -1.42399147	      8.34161097	      0.37042720	     -1.51299094	      7.37948019	      0.67718548	     -1.51299094	      5.13361003	      0.67718548	     -1.24599254	      4.17103007	      0.56795123	     -1.15699307	      2.56658043	      0.43142235	     -1.06799361	     32.08405202	      3.15063650	     -7.91981338	      0.00000000	      0.00000000	      8.60476052	      1.11278399	     -1.24760209	     -1.08002347	     -8.63871495	   -203.90924633	      0.23158460	     89.99559364	      0.00000000	      0.00000000	    -14.97912484	    -11.78277997	     -8.08126377	     40.92562780	     89.99559364	      0.00000000	      0.00000000
      2.33333333	    -27.44717835	    -15.52245357	     25.01209292	     -1.17476501	      0.89353280	      0.40910664	     27.27089147	     -0.53224709	    -21.97888601	     24.17295689	      0.42189769	     27.94985196	     -1.63524089	      0.00000000	     44.90810500	    -10.09258957	      3.14207028	     46.20660017	      0.80645731	     21.65276614	    -18.15696985	      0.00000000	      4.14975058	      0.14424885	     -1.81347839	      7.70650180	      0.19185097	     -1.92682079	      6.81762523	      0.35072665	     -1.92682079	      4.74274994	      0.35072665	     -1.58679359	      3.85345839	      0.29415226	     -1.47345119	      2.37116748	      0.22344147	     -1.36010879	     29.64125342	      1.63177184	    -10.08602277	      0.00000000	      0.00000000	     10.71340536	      1.66937294	     -2.63664846	      2.45110557	     -7.84140364	   -205.01248493	      0.20378912	     89.99559364	      0.00000000	      0.00000000	    -14.35356117	    -11.50689855	     -9.21340484	     38.00981159	     89.99559364	      0.00000000	      0.00000000
